<svg xmlns="http://www.w3.org/2000/svg" width="400" height="400" viewBox="0 0 400 400"><rect width="100%" height="100%" fill="#DDDDDD"/><path fill="#999999" d="M122.605 165.59h9.24v56.39h-5.38q-1.25 0-2.09-.41-.84-.41-1.62-1.38l-29.44-37.6q.23 2.57.23 4.76v34.63h-9.24v-56.39h5.5q.66 0 1.15.05.49.06.86.24.37.17.72.51.35.33.78.87l29.56 37.76q-.12-1.37-.19-2.7-.08-1.32-.08-2.45v-34.28Zm37.98 15.75q4.45 0 8.1 1.44 3.64 1.45 6.24 4.1 2.59 2.65 3.99 6.47 1.41 3.83 1.41 8.54 0 4.76-1.41 8.58-1.4 3.83-3.99 6.52-2.6 2.69-6.24 4.13-3.65 1.44-8.1 1.44-4.48 0-8.15-1.44-3.66-1.44-6.26-4.13-2.59-2.69-4.01-6.52-1.43-3.82-1.43-8.58 0-4.71 1.43-8.54 1.42-3.82 4.01-6.47 2.6-2.65 6.26-4.1 3.67-1.44 8.15-1.44Zm0 33.81q5 0 7.4-3.35 2.39-3.35 2.39-9.83 0-6.47-2.39-9.86-2.4-3.4-7.4-3.4-5.07 0-7.5 3.42-2.44 3.41-2.44 9.84 0 6.44 2.44 9.81 2.43 3.37 7.5 3.37Zm67.36-6.47q.86 0 1.52.66l4.13 4.49q-3.43 4.25-8.44 6.51t-12.03 2.26q-6.28 0-11.29-2.14-5.01-2.15-8.56-5.97-3.55-3.82-5.44-9.12-1.9-5.31-1.9-11.59 0-6.35 2.03-11.64 2.03-5.28 5.72-9.11 3.68-3.82 8.79-5.94 5.11-2.13 11.31-2.13 6.16 0 10.94 2.03 4.78 2.03 8.13 5.3l-3.51 4.88q-.31.47-.8.82-.49.35-1.34.35-.59 0-1.21-.33-.63-.33-1.37-.82-.74-.49-1.71-1.07-.98-.59-2.27-1.08-1.28-.48-2.98-.82-1.7-.33-3.92-.33-3.78 0-6.92 1.35-3.14 1.34-5.4 3.9-2.26 2.55-3.51 6.24-1.25 3.68-1.25 8.4 0 4.76 1.35 8.47 1.34 3.7 3.64 6.24 2.3 2.53 5.42 3.88 3.12 1.34 6.71 1.34 2.15 0 3.88-.23 1.74-.24 3.2-.74 1.46-.51 2.77-1.31 1.3-.8 2.59-1.97.39-.35.82-.56.43-.22.9-.22Zm32.48 2.96v-6.74q-4.17.19-7.02.72-2.84.53-4.56 1.34-1.71.82-2.46 1.92-.74 1.09-.74 2.38 0 2.53 1.51 3.62 1.5 1.09 3.91 1.09 2.97 0 5.13-1.07 2.17-1.07 4.23-3.26Zm-20.35-21.02-1.72-3.08q6.9-6.32 16.61-6.32 3.51 0 6.28 1.16 2.77 1.15 4.68 3.19 1.91 2.05 2.91 4.9.99 2.85.99 6.24v25.27h-4.36q-1.37 0-2.11-.41-.74-.41-1.17-1.66l-.86-2.88q-1.52 1.36-2.96 2.4-1.45 1.03-3.01 1.73-1.56.7-3.33 1.07-1.77.37-3.92.37-2.53 0-4.68-.68-2.14-.68-3.7-2.05-1.56-1.36-2.42-3.39-.86-2.03-.86-4.72 0-1.52.51-3.02.5-1.5 1.65-2.87 1.15-1.36 2.99-2.57 1.83-1.21 4.5-2.11 2.67-.89 6.22-1.46t8.11-.68v-2.34q0-4.02-1.71-5.95-1.72-1.93-4.95-1.93-2.34 0-3.88.55-1.55.54-2.72 1.22-1.17.69-2.12 1.23-.96.55-2.13.55-1.01 0-1.71-.53-.7-.52-1.13-1.23Zm48.43 3.05v17.94q1.64 1.99 3.57 2.8 1.93.82 4.2.82 2.18 0 3.93-.82 1.76-.81 2.99-2.49 1.23-1.68 1.89-4.23.66-2.56.66-6.03 0-3.51-.56-5.95-.57-2.43-1.62-3.96-1.05-1.52-2.56-2.22-1.5-.7-3.41-.7-3 0-5.11 1.27-2.1 1.27-3.98 3.57Zm-1.28-9.95.78 3.71q2.45-2.77 5.57-4.49 3.12-1.72 7.34-1.72 3.27 0 5.98 1.37 2.71 1.37 4.68 3.96 1.97 2.59 3.05 6.39 1.07 3.81 1.07 8.72 0 4.49-1.21 8.31-1.21 3.82-3.45 6.63-2.25 2.81-5.42 4.39-3.18 1.57-7.12 1.57-3.36 0-5.73-1.03-2.38-1.03-4.26-2.86v16.37h-9.63v-53.07h5.89q1.87 0 2.46 1.75Z"/></svg>